<?xml version="1.0" standalone="no"?>
<!DOCTYPE svg PUBLIC "-//W3C//DTD SVG 20010904//EN"
 "http://www.w3.org/TR/2001/REC-SVG-20010904/DTD/svg10.dtd">
<svg version="1.0" xmlns="http://www.w3.org/2000/svg"
 width="1024.000000pt" height="1024.000000pt" viewBox="0 0 1024.000000 1024.000000"
 preserveAspectRatio="xMidYMid meet">

<g transform="translate(0.000000,1024.000000) scale(0.100000,-0.100000)"
fill="#000000" stroke="none">
<path d="M3505 8239 c-139 -23 -284 -108 -370 -216 -56 -71 -90 -142 -115
-236 -18 -69 -19 -136 -17 -1817 l2 -1745 27 -75 c40 -113 74 -167 157 -251
56 -55 96 -86 151 -113 144 -70 44 -67 1813 -64 l1592 3 78 28 c211 74 350
229 397 444 19 85 20 142 20 1786 0 1869 3 1775 -61 1916 -78 173 -237 296
-431 335 -68 14 -260 16 -1635 15 -857 -1 -1580 -5 -1608 -10z m3307 -206
c115 -54 199 -150 232 -262 14 -49 16 -234 16 -1791 0 -1935 6 -1784 -71
-1899 -46 -69 -122 -129 -208 -163 l-56 -23 -1574 -3 c-1705 -3 -1627 -5
-1739 50 -70 33 -154 118 -193 194 l-34 68 -3 1750 c-3 1934 -6 1813 61 1919
55 85 126 140 232 178 48 18 128 18 1660 16 l1610 -2 67 -32z"/>
<path d="M4948 7846 c-604 -108 -980 -673 -848 -1276 41 -187 129 -347 270
-491 190 -193 423 -301 686 -316 515 -30 990 359 1074 880 19 114 8 361 -20
457 -125 433 -516 737 -970 755 -73 3 -143 -1 -192 -9z m304 -171 c523 -91
842 -617 684 -1125 -98 -313 -392 -565 -710 -609 -109 -15 -178 -13 -281 8
-280 58 -506 236 -624 493 -60 131 -76 210 -76 373 1 114 5 154 23 218 85 298
298 523 582 615 131 43 263 52 402 27z"/>
<path d="M5253 6988 l-303 -303 -128 128 c-115 115 -133 129 -170 134 -71 10
-129 -29 -145 -98 -15 -59 6 -88 202 -283 l190 -189 51 5 52 5 201 199 c111
110 275 271 364 360 l163 160 0 50 c0 85 -47 133 -130 134 l-44 0 -303 -302z
m439 253 c22 -25 28 -41 28 -79 l0 -47 -352 -352 c-194 -193 -363 -356 -375
-362 -30 -15 -69 -14 -101 3 -15 8 -104 92 -198 188 -130 132 -172 181 -176
204 -15 103 81 176 170 130 15 -8 80 -68 144 -133 l117 -119 293 294 c161 161
302 298 313 303 11 5 40 7 65 5 34 -3 51 -11 72 -35z"/>
<path d="M3780 5478 c-40 -43 -38 -106 4 -133 20 -14 176 -15 1341 -15 l1319
0 23 22 c32 30 32 90 -2 123 l-24 25 -1320 0 -1320 0 -21 -22z"/>
<path d="M3775 4945 c-35 -34 -33 -78 4 -116 l30 -29 1321 2 1322 3 19 24 c25
31 24 82 -2 115 l-20 26 -1325 0 -1325 0 -24 -25z"/>
<path d="M3778 4420 c-26 -27 -30 -36 -25 -68 13 -78 -64 -72 994 -72 597 0
951 4 963 10 10 5 23 24 29 41 14 41 -8 95 -44 109 -17 6 -365 10 -956 10
l-931 0 -30 -30z"/>
<path d="M2796 2954 c-85 -21 -168 -68 -229 -133 -65 -68 -104 -140 -123 -230
-39 -184 6 -344 130 -466 198 -194 517 -192 711 3 105 104 158 268 137 417
-44 300 -323 482 -626 409z m250 -213 c22 -10 58 -35 79 -56 107 -107 108
-302 2 -414 -108 -114 -309 -108 -412 11 -84 99 -91 262 -15 366 78 108 223
147 346 93z"/>
<path d="M5298 2948 c-71 -24 -148 -91 -179 -155 -28 -59 -31 -177 -6 -234 41
-91 93 -125 292 -190 131 -42 155 -59 155 -109 0 -29 -32 -64 -69 -75 -77 -23
-172 7 -239 77 l-40 41 -80 -59 -81 -58 20 -28 c68 -95 243 -178 379 -178 106
0 219 52 276 128 63 81 70 224 17 311 -41 65 -90 94 -249 146 -78 25 -149 54
-158 64 -18 20 -21 73 -6 102 25 45 122 64 180 34 16 -8 41 -30 55 -49 l26
-34 89 56 88 57 -16 28 c-29 50 -100 104 -165 126 -81 28 -209 27 -289 -1z"/>
<path d="M1450 2475 l0 -475 104 0 105 0 -6 310 c-5 297 -1 342 23 291 5 -11
99 -150 209 -310 l200 -290 103 -1 102 0 0 475 0 475 -105 0 -106 0 3 -295 c2
-162 1 -295 -2 -295 -3 0 -97 133 -210 295 l-205 295 -107 0 -108 0 0 -475z"/>
<path d="M3455 2940 c-1 -3 -3 -47 -4 -97 l-2 -93 135 0 136 0 0 -375 0 -375
105 0 105 0 0 375 0 375 135 0 135 0 0 95 0 95 -371 2 c-204 2 -372 1 -374 -2z"/>
<path d="M4340 2475 l0 -475 305 0 305 0 0 95 0 95 -200 0 -200 0 0 100 0 100
175 0 175 0 0 90 0 90 -175 0 -175 0 0 95 0 95 195 0 195 0 0 95 0 95 -300 0
-300 0 0 -475z"/>
<path d="M6491 2853 c-18 -54 -94 -266 -167 -471 -74 -205 -134 -375 -134
-378 0 -2 51 -4 113 -4 l113 0 13 38 c8 20 22 61 33 90 l19 52 183 0 182 0 29
-90 29 -90 113 0 c62 0 113 1 113 3 0 2 -76 214 -169 473 l-169 469 -134 3
-133 2 -34 -97z m223 -300 c27 -82 51 -154 53 -160 4 -10 -21 -13 -107 -13
-84 0 -111 3 -108 13 13 49 104 307 108 307 3 0 27 -66 54 -147z"/>
<path d="M7260 2476 l0 -476 105 0 105 0 0 159 0 159 133 4 c147 4 191 17 261
78 61 54 89 120 92 220 4 142 -50 241 -164 297 -57 28 -57 28 -294 31 l-238 4
0 -476z m431 261 c19 -13 40 -39 48 -61 20 -52 0 -111 -48 -143 -29 -20 -47
-23 -127 -23 l-94 0 0 125 0 125 94 0 c80 0 98 -3 127 -23z"/>
<path d="M8090 2476 l0 -476 105 0 105 0 0 164 0 164 133 4 c160 5 213 23 281
99 54 60 76 121 76 210 0 96 -28 165 -89 222 -84 78 -93 81 -368 85 l-243 4 0
-476z m438 266 c67 -49 64 -151 -7 -199 -29 -20 -47 -23 -127 -23 l-94 0 0
126 0 126 98 -4 c82 -3 103 -7 130 -26z"/>
</g>
</svg>
